<?xml version="1.0" encoding="utf-8" standalone="no"?>
<!DOCTYPE svg PUBLIC "-//W3C//DTD SVG 1.1//EN"
  "http://www.w3.org/Graphics/SVG/1.1/DTD/svg11.dtd">
<svg xmlns:xlink="http://www.w3.org/1999/xlink" width="475.776pt" height="251.55125pt" viewBox="0 0 475.776 251.55125" xmlns="http://www.w3.org/2000/svg" version="1.1">
 <metadata>
  <rdf:RDF xmlns:dc="http://purl.org/dc/elements/1.1/" xmlns:cc="http://creativecommons.org/ns#" xmlns:rdf="http://www.w3.org/1999/02/22-rdf-syntax-ns#">
   <cc:Work>
    <dc:type rdf:resource="http://purl.org/dc/dcmitype/StillImage"/>
    <dc:date>2026-06-12T14:59:37.624739</dc:date>
    <dc:format>image/svg+xml</dc:format>
    <dc:creator>
     <cc:Agent>
      <dc:title>Matplotlib v3.7.0, https://matplotlib.org/</dc:title>
     </cc:Agent>
    </dc:creator>
   </cc:Work>
  </rdf:RDF>
 </metadata>
 <defs>
  <style type="text/css">*{stroke-linejoin: round; stroke-linecap: butt}</style>
 </defs>
 <g id="figure_1">
  <g id="patch_1">
   <path d="M 0 251.55125 
L 475.776 251.55125 
L 475.776 -0 
L 0 -0 
z
" style="fill: #ffffff"/>
  </g>
  <g id="axes_1">
   <g id="patch_2">
    <path d="M 66.816 212.72 
L 249.434182 212.72 
L 249.434182 46.4 
L 66.816 46.4 
z
" style="fill: #ffffff"/>
   </g>
   <g id="matplotlib.axis_1">
    <g id="xtick_1">
     <g id="line2d_1">
      <defs>
       <path id="m67d546ccb8" d="M 0 0 
L 0 3.5 
" style="stroke: #000000; stroke-width: 0.8"/>
      </defs>
      <g>
       <use xlink:href="#m67d546ccb8" x="75.116826" y="212.72" style="stroke: #000000; stroke-width: 0.8"/>
      </g>
     </g>
     <g id="text_1">
      <text style="font: 8px 'Arial', 'Helvetica', 'DejaVu Sans', sans-serif; text-anchor: middle" x="75.116826" y="225.44625" transform="rotate(-0 75.116826 225.44625)">1</text>
     </g>
    </g>
    <g id="xtick_2">
     <g id="line2d_2">
      <g>
       <use xlink:href="#m67d546ccb8" x="105.30165" y="212.72" style="stroke: #000000; stroke-width: 0.8"/>
      </g>
     </g>
     <g id="text_2">
      <text style="font: 8px 'Arial', 'Helvetica', 'DejaVu Sans', sans-serif; text-anchor: middle" x="105.30165" y="225.44625" transform="rotate(-0 105.30165 225.44625)">3</text>
     </g>
    </g>
    <g id="xtick_3">
     <g id="line2d_3">
      <g>
       <use xlink:href="#m67d546ccb8" x="150.578885" y="212.72" style="stroke: #000000; stroke-width: 0.8"/>
      </g>
     </g>
     <g id="text_3">
      <text style="font: 8px 'Arial', 'Helvetica', 'DejaVu Sans', sans-serif; text-anchor: middle" x="150.578885" y="225.44625" transform="rotate(-0 150.578885 225.44625)">6</text>
     </g>
    </g>
    <g id="xtick_4">
     <g id="line2d_4">
      <g>
       <use xlink:href="#m67d546ccb8" x="241.133355" y="212.72" style="stroke: #000000; stroke-width: 0.8"/>
      </g>
     </g>
     <g id="text_4">
      <text style="font: 8px 'Arial', 'Helvetica', 'DejaVu Sans', sans-serif; text-anchor: middle" x="241.133355" y="225.44625" transform="rotate(-0 241.133355 225.44625)">12</text>
     </g>
    </g>
    <g id="text_5">
     <text style="font: 8px 'Arial', 'Helvetica', 'DejaVu Sans', sans-serif; text-anchor: middle" x="158.125091" y="236.86" transform="rotate(-0 158.125091 236.86)">Forecast horizon (hours)</text>
    </g>
   </g>
   <g id="matplotlib.axis_2">
    <g id="ytick_1">
     <g id="line2d_5">
      <path d="M 66.816 212.72 
L 249.434182 212.72 
" clip-path="url(#pd0ad024799)" style="fill: none; stroke: #e5e5e5; stroke-width: 0.6; stroke-linecap: square"/>
     </g>
     <g id="line2d_6">
      <defs>
       <path id="m24db7b0693" d="M 0 0 
L -3.5 0 
" style="stroke: #000000; stroke-width: 0.8"/>
      </defs>
      <g>
       <use xlink:href="#m24db7b0693" x="66.816" y="212.72" style="stroke: #000000; stroke-width: 0.8"/>
      </g>
     </g>
     <g id="text_6">
      <text style="font: 8px 'Arial', 'Helvetica', 'DejaVu Sans', sans-serif; text-anchor: end" x="59.816" y="215.583125" transform="rotate(-0 59.816 215.583125)">0.0</text>
     </g>
    </g>
    <g id="ytick_2">
     <g id="line2d_7">
      <path d="M 66.816 178.684587 
L 249.434182 178.684587 
" clip-path="url(#pd0ad024799)" style="fill: none; stroke: #e5e5e5; stroke-width: 0.6; stroke-linecap: square"/>
     </g>
     <g id="line2d_8">
      <g>
       <use xlink:href="#m24db7b0693" x="66.816" y="178.684587" style="stroke: #000000; stroke-width: 0.8"/>
      </g>
     </g>
     <g id="text_7">
      <text style="font: 8px 'Arial', 'Helvetica', 'DejaVu Sans', sans-serif; text-anchor: end" x="59.816" y="181.547712" transform="rotate(-0 59.816 181.547712)">0.1</text>
     </g>
    </g>
    <g id="ytick_3">
     <g id="line2d_9">
      <path d="M 66.816 144.649174 
L 249.434182 144.649174 
" clip-path="url(#pd0ad024799)" style="fill: none; stroke: #e5e5e5; stroke-width: 0.6; stroke-linecap: square"/>
     </g>
     <g id="line2d_10">
      <g>
       <use xlink:href="#m24db7b0693" x="66.816" y="144.649174" style="stroke: #000000; stroke-width: 0.8"/>
      </g>
     </g>
     <g id="text_8">
      <text style="font: 8px 'Arial', 'Helvetica', 'DejaVu Sans', sans-serif; text-anchor: end" x="59.816" y="147.512299" transform="rotate(-0 59.816 147.512299)">0.2</text>
     </g>
    </g>
    <g id="ytick_4">
     <g id="line2d_11">
      <path d="M 66.816 110.613761 
L 249.434182 110.613761 
" clip-path="url(#pd0ad024799)" style="fill: none; stroke: #e5e5e5; stroke-width: 0.6; stroke-linecap: square"/>
     </g>
     <g id="line2d_12">
      <g>
       <use xlink:href="#m24db7b0693" x="66.816" y="110.613761" style="stroke: #000000; stroke-width: 0.8"/>
      </g>
     </g>
     <g id="text_9">
      <text style="font: 8px 'Arial', 'Helvetica', 'DejaVu Sans', sans-serif; text-anchor: end" x="59.816" y="113.476886" transform="rotate(-0 59.816 113.476886)">0.3</text>
     </g>
    </g>
    <g id="ytick_5">
     <g id="line2d_13">
      <path d="M 66.816 76.578348 
L 249.434182 76.578348 
" clip-path="url(#pd0ad024799)" style="fill: none; stroke: #e5e5e5; stroke-width: 0.6; stroke-linecap: square"/>
     </g>
     <g id="line2d_14">
      <g>
       <use xlink:href="#m24db7b0693" x="66.816" y="76.578348" style="stroke: #000000; stroke-width: 0.8"/>
      </g>
     </g>
     <g id="text_10">
      <text style="font: 8px 'Arial', 'Helvetica', 'DejaVu Sans', sans-serif; text-anchor: end" x="59.816" y="79.441473" transform="rotate(-0 59.816 79.441473)">0.4</text>
     </g>
    </g>
    <g id="text_11">
     <text style="font: 8px 'Arial', 'Helvetica', 'DejaVu Sans', sans-serif; text-anchor: middle" x="43.106" y="129.56" transform="rotate(-90 43.106 129.56)">AUPRC</text>
    </g>
   </g>
   <g id="line2d_15">
    <path d="M 75.116826 52.441976 
L 105.30165 96.699139 
L 150.578885 107.638779 
L 241.133355 83.17051 
" clip-path="url(#pd0ad024799)" style="fill: none; stroke: #4e79a7; stroke-width: 1.4; stroke-linecap: square"/>
    <defs>
     <path id="m6a83e68c2e" d="M 0 1.75 
C 0.464105 1.75 0.909265 1.565609 1.237437 1.237437 
C 1.565609 0.909265 1.75 0.464105 1.75 0 
C 1.75 -0.464105 1.565609 -0.909265 1.237437 -1.237437 
C 0.909265 -1.565609 0.464105 -1.75 0 -1.75 
C -0.464105 -1.75 -0.909265 -1.565609 -1.237437 -1.237437 
C -1.565609 -0.909265 -1.75 -0.464105 -1.75 0 
C -1.75 0.464105 -1.565609 0.909265 -1.237437 1.237437 
C -0.909265 1.565609 -0.464105 1.75 0 1.75 
z
" style="stroke: #4e79a7"/>
    </defs>
    <g clip-path="url(#pd0ad024799)">
     <use xlink:href="#m6a83e68c2e" x="75.116826" y="52.441976" style="fill: #4e79a7; stroke: #4e79a7"/>
     <use xlink:href="#m6a83e68c2e" x="105.30165" y="96.699139" style="fill: #4e79a7; stroke: #4e79a7"/>
     <use xlink:href="#m6a83e68c2e" x="150.578885" y="107.638779" style="fill: #4e79a7; stroke: #4e79a7"/>
     <use xlink:href="#m6a83e68c2e" x="241.133355" y="83.17051" style="fill: #4e79a7; stroke: #4e79a7"/>
    </g>
   </g>
   <g id="line2d_16">
    <path d="M 75.116826 50.842163 
L 105.30165 98.205148 
L 150.578885 116.048247 
L 241.133355 77.989776 
" clip-path="url(#pd0ad024799)" style="fill: none; stroke: #86bcb6; stroke-width: 1.4; stroke-linecap: square"/>
    <defs>
     <path id="m21aa1def04" d="M 0 1.75 
C 0.464105 1.75 0.909265 1.565609 1.237437 1.237437 
C 1.565609 0.909265 1.75 0.464105 1.75 0 
C 1.75 -0.464105 1.565609 -0.909265 1.237437 -1.237437 
C 0.909265 -1.565609 0.464105 -1.75 0 -1.75 
C -0.464105 -1.75 -0.909265 -1.565609 -1.237437 -1.237437 
C -1.565609 -0.909265 -1.75 -0.464105 -1.75 0 
C -1.75 0.464105 -1.565609 0.909265 -1.237437 1.237437 
C -0.909265 1.565609 -0.464105 1.75 0 1.75 
z
" style="stroke: #86bcb6"/>
    </defs>
    <g clip-path="url(#pd0ad024799)">
     <use xlink:href="#m21aa1def04" x="75.116826" y="50.842163" style="fill: #86bcb6; stroke: #86bcb6"/>
     <use xlink:href="#m21aa1def04" x="105.30165" y="98.205148" style="fill: #86bcb6; stroke: #86bcb6"/>
     <use xlink:href="#m21aa1def04" x="150.578885" y="116.048247" style="fill: #86bcb6; stroke: #86bcb6"/>
     <use xlink:href="#m21aa1def04" x="241.133355" y="77.989776" style="fill: #86bcb6; stroke: #86bcb6"/>
    </g>
   </g>
   <g id="line2d_17">
    <path d="M 75.116826 128.810093 
L 105.30165 133.395922 
L 150.578885 112.662393 
L 241.133355 128.759592 
" clip-path="url(#pd0ad024799)" style="fill: none; stroke: #f28e2b; stroke-width: 1.4; stroke-linecap: square"/>
    <defs>
     <path id="m13ba028faa" d="M 0 1.75 
C 0.464105 1.75 0.909265 1.565609 1.237437 1.237437 
C 1.565609 0.909265 1.75 0.464105 1.75 0 
C 1.75 -0.464105 1.565609 -0.909265 1.237437 -1.237437 
C 0.909265 -1.565609 0.464105 -1.75 0 -1.75 
C -0.464105 -1.75 -0.909265 -1.565609 -1.237437 -1.237437 
C -1.565609 -0.909265 -1.75 -0.464105 -1.75 0 
C -1.75 0.464105 -1.565609 0.909265 -1.237437 1.237437 
C -0.909265 1.565609 -0.464105 1.75 0 1.75 
z
" style="stroke: #f28e2b"/>
    </defs>
    <g clip-path="url(#pd0ad024799)">
     <use xlink:href="#m13ba028faa" x="75.116826" y="128.810093" style="fill: #f28e2b; stroke: #f28e2b"/>
     <use xlink:href="#m13ba028faa" x="105.30165" y="133.395922" style="fill: #f28e2b; stroke: #f28e2b"/>
     <use xlink:href="#m13ba028faa" x="150.578885" y="112.662393" style="fill: #f28e2b; stroke: #f28e2b"/>
     <use xlink:href="#m13ba028faa" x="241.133355" y="128.759592" style="fill: #f28e2b; stroke: #f28e2b"/>
    </g>
   </g>
   <g id="line2d_18">
    <path d="M 75.116826 125.134524 
L 105.30165 127.844406 
L 150.578885 139.685426 
L 241.133355 130.87253 
" clip-path="url(#pd0ad024799)" style="fill: none; stroke: #e15759; stroke-width: 1.4; stroke-linecap: square"/>
    <defs>
     <path id="m8b7631898b" d="M 0 1.75 
C 0.464105 1.75 0.909265 1.565609 1.237437 1.237437 
C 1.565609 0.909265 1.75 0.464105 1.75 0 
C 1.75 -0.464105 1.565609 -0.909265 1.237437 -1.237437 
C 0.909265 -1.565609 0.464105 -1.75 0 -1.75 
C -0.464105 -1.75 -0.909265 -1.565609 -1.237437 -1.237437 
C -1.565609 -0.909265 -1.75 -0.464105 -1.75 0 
C -1.75 0.464105 -1.565609 0.909265 -1.237437 1.237437 
C -0.909265 1.565609 -0.464105 1.75 0 1.75 
z
" style="stroke: #e15759"/>
    </defs>
    <g clip-path="url(#pd0ad024799)">
     <use xlink:href="#m8b7631898b" x="75.116826" y="125.134524" style="fill: #e15759; stroke: #e15759"/>
     <use xlink:href="#m8b7631898b" x="105.30165" y="127.844406" style="fill: #e15759; stroke: #e15759"/>
     <use xlink:href="#m8b7631898b" x="150.578885" y="139.685426" style="fill: #e15759; stroke: #e15759"/>
     <use xlink:href="#m8b7631898b" x="241.133355" y="130.87253" style="fill: #e15759; stroke: #e15759"/>
    </g>
   </g>
   <g id="line2d_19">
    <path d="M 75.116826 54.018284 
L 105.30165 85.010543 
L 150.578885 104.450426 
L 241.133355 85.695984 
" clip-path="url(#pd0ad024799)" style="fill: none; stroke: #59a14f; stroke-width: 1.4; stroke-linecap: square"/>
    <defs>
     <path id="m2e429fbf06" d="M 0 1.75 
C 0.464105 1.75 0.909265 1.565609 1.237437 1.237437 
C 1.565609 0.909265 1.75 0.464105 1.75 0 
C 1.75 -0.464105 1.565609 -0.909265 1.237437 -1.237437 
C 0.909265 -1.565609 0.464105 -1.75 0 -1.75 
C -0.464105 -1.75 -0.909265 -1.565609 -1.237437 -1.237437 
C -1.565609 -0.909265 -1.75 -0.464105 -1.75 0 
C -1.75 0.464105 -1.565609 0.909265 -1.237437 1.237437 
C -0.909265 1.565609 -0.464105 1.75 0 1.75 
z
" style="stroke: #59a14f"/>
    </defs>
    <g clip-path="url(#pd0ad024799)">
     <use xlink:href="#m2e429fbf06" x="75.116826" y="54.018284" style="fill: #59a14f; stroke: #59a14f"/>
     <use xlink:href="#m2e429fbf06" x="105.30165" y="85.010543" style="fill: #59a14f; stroke: #59a14f"/>
     <use xlink:href="#m2e429fbf06" x="150.578885" y="104.450426" style="fill: #59a14f; stroke: #59a14f"/>
     <use xlink:href="#m2e429fbf06" x="241.133355" y="85.695984" style="fill: #59a14f; stroke: #59a14f"/>
    </g>
   </g>
   <g id="line2d_20">
    <path d="M 75.116826 52.69802 
L 105.30165 76.914461 
L 150.578885 98.921748 
L 241.133355 84.427786 
" clip-path="url(#pd0ad024799)" style="fill: none; stroke: #b07aa1; stroke-width: 1.4; stroke-linecap: square"/>
    <defs>
     <path id="m1149bbda6e" d="M 0 1.75 
C 0.464105 1.75 0.909265 1.565609 1.237437 1.237437 
C 1.565609 0.909265 1.75 0.464105 1.75 0 
C 1.75 -0.464105 1.565609 -0.909265 1.237437 -1.237437 
C 0.909265 -1.565609 0.464105 -1.75 0 -1.75 
C -0.464105 -1.75 -0.909265 -1.565609 -1.237437 -1.237437 
C -1.565609 -0.909265 -1.75 -0.464105 -1.75 0 
C -1.75 0.464105 -1.565609 0.909265 -1.237437 1.237437 
C -0.909265 1.565609 -0.464105 1.75 0 1.75 
z
" style="stroke: #b07aa1"/>
    </defs>
    <g clip-path="url(#pd0ad024799)">
     <use xlink:href="#m1149bbda6e" x="75.116826" y="52.69802" style="fill: #b07aa1; stroke: #b07aa1"/>
     <use xlink:href="#m1149bbda6e" x="105.30165" y="76.914461" style="fill: #b07aa1; stroke: #b07aa1"/>
     <use xlink:href="#m1149bbda6e" x="150.578885" y="98.921748" style="fill: #b07aa1; stroke: #b07aa1"/>
     <use xlink:href="#m1149bbda6e" x="241.133355" y="84.427786" style="fill: #b07aa1; stroke: #b07aa1"/>
    </g>
   </g>
   <g id="patch_3">
    <path d="M 66.816 212.72 
L 66.816 46.4 
" style="fill: none; stroke: #000000; stroke-width: 0.8; stroke-linejoin: miter; stroke-linecap: square"/>
   </g>
   <g id="patch_4">
    <path d="M 66.816 212.72 
L 249.434182 212.72 
" style="fill: none; stroke: #000000; stroke-width: 0.8; stroke-linejoin: miter; stroke-linecap: square"/>
   </g>
   <g id="text_12">
    <text style="font: 9.6px 'Arial', 'Helvetica', 'DejaVu Sans', sans-serif; text-anchor: middle" x="158.125091" y="40.4" transform="rotate(-0 158.125091 40.4)">A. Weak-label AUPRC</text>
   </g>
  </g>
  <g id="axes_2">
   <g id="patch_5">
    <path d="M 285.957818 212.72 
L 468.576 212.72 
L 468.576 46.4 
L 285.957818 46.4 
z
" style="fill: #ffffff"/>
   </g>
   <g id="matplotlib.axis_3">
    <g id="xtick_5">
     <g id="line2d_21">
      <g>
       <use xlink:href="#m67d546ccb8" x="294.258645" y="212.72" style="stroke: #000000; stroke-width: 0.8"/>
      </g>
     </g>
     <g id="text_13">
      <text style="font: 8px 'Arial', 'Helvetica', 'DejaVu Sans', sans-serif; text-anchor: middle" x="294.258645" y="225.44625" transform="rotate(-0 294.258645 225.44625)">1</text>
     </g>
    </g>
    <g id="xtick_6">
     <g id="line2d_22">
      <g>
       <use xlink:href="#m67d546ccb8" x="324.443468" y="212.72" style="stroke: #000000; stroke-width: 0.8"/>
      </g>
     </g>
     <g id="text_14">
      <text style="font: 8px 'Arial', 'Helvetica', 'DejaVu Sans', sans-serif; text-anchor: middle" x="324.443468" y="225.44625" transform="rotate(-0 324.443468 225.44625)">3</text>
     </g>
    </g>
    <g id="xtick_7">
     <g id="line2d_23">
      <g>
       <use xlink:href="#m67d546ccb8" x="369.720703" y="212.72" style="stroke: #000000; stroke-width: 0.8"/>
      </g>
     </g>
     <g id="text_15">
      <text style="font: 8px 'Arial', 'Helvetica', 'DejaVu Sans', sans-serif; text-anchor: middle" x="369.720703" y="225.44625" transform="rotate(-0 369.720703 225.44625)">6</text>
     </g>
    </g>
    <g id="xtick_8">
     <g id="line2d_24">
      <g>
       <use xlink:href="#m67d546ccb8" x="460.275174" y="212.72" style="stroke: #000000; stroke-width: 0.8"/>
      </g>
     </g>
     <g id="text_16">
      <text style="font: 8px 'Arial', 'Helvetica', 'DejaVu Sans', sans-serif; text-anchor: middle" x="460.275174" y="225.44625" transform="rotate(-0 460.275174 225.44625)">12</text>
     </g>
    </g>
    <g id="text_17">
     <text style="font: 8px 'Arial', 'Helvetica', 'DejaVu Sans', sans-serif; text-anchor: middle" x="377.266909" y="236.86" transform="rotate(-0 377.266909 236.86)">Forecast horizon (hours)</text>
    </g>
   </g>
   <g id="matplotlib.axis_4">
    <g id="ytick_6">
     <g id="line2d_25">
      <path d="M 285.957818 212.72 
L 468.576 212.72 
" clip-path="url(#p6ce14d3d83)" style="fill: none; stroke: #e5e5e5; stroke-width: 0.6; stroke-linecap: square"/>
     </g>
     <g id="line2d_26">
      <g>
       <use xlink:href="#m24db7b0693" x="285.957818" y="212.72" style="stroke: #000000; stroke-width: 0.8"/>
      </g>
     </g>
     <g id="text_18">
      <text style="font: 8px 'Arial', 'Helvetica', 'DejaVu Sans', sans-serif; text-anchor: end" x="278.957818" y="215.583125" transform="rotate(-0 278.957818 215.583125)">0.0</text>
     </g>
    </g>
    <g id="ytick_7">
     <g id="line2d_27">
      <path d="M 285.957818 179.236552 
L 468.576 179.236552 
" clip-path="url(#p6ce14d3d83)" style="fill: none; stroke: #e5e5e5; stroke-width: 0.6; stroke-linecap: square"/>
     </g>
     <g id="line2d_28">
      <g>
       <use xlink:href="#m24db7b0693" x="285.957818" y="179.236552" style="stroke: #000000; stroke-width: 0.8"/>
      </g>
     </g>
     <g id="text_19">
      <text style="font: 8px 'Arial', 'Helvetica', 'DejaVu Sans', sans-serif; text-anchor: end" x="278.957818" y="182.099677" transform="rotate(-0 278.957818 182.099677)">0.1</text>
     </g>
    </g>
    <g id="ytick_8">
     <g id="line2d_29">
      <path d="M 285.957818 145.753103 
L 468.576 145.753103 
" clip-path="url(#p6ce14d3d83)" style="fill: none; stroke: #e5e5e5; stroke-width: 0.6; stroke-linecap: square"/>
     </g>
     <g id="line2d_30">
      <g>
       <use xlink:href="#m24db7b0693" x="285.957818" y="145.753103" style="stroke: #000000; stroke-width: 0.8"/>
      </g>
     </g>
     <g id="text_20">
      <text style="font: 8px 'Arial', 'Helvetica', 'DejaVu Sans', sans-serif; text-anchor: end" x="278.957818" y="148.616228" transform="rotate(-0 278.957818 148.616228)">0.2</text>
     </g>
    </g>
    <g id="ytick_9">
     <g id="line2d_31">
      <path d="M 285.957818 112.269655 
L 468.576 112.269655 
" clip-path="url(#p6ce14d3d83)" style="fill: none; stroke: #e5e5e5; stroke-width: 0.6; stroke-linecap: square"/>
     </g>
     <g id="line2d_32">
      <g>
       <use xlink:href="#m24db7b0693" x="285.957818" y="112.269655" style="stroke: #000000; stroke-width: 0.8"/>
      </g>
     </g>
     <g id="text_21">
      <text style="font: 8px 'Arial', 'Helvetica', 'DejaVu Sans', sans-serif; text-anchor: end" x="278.957818" y="115.13278" transform="rotate(-0 278.957818 115.13278)">0.3</text>
     </g>
    </g>
    <g id="ytick_10">
     <g id="line2d_33">
      <path d="M 285.957818 78.786206 
L 468.576 78.786206 
" clip-path="url(#p6ce14d3d83)" style="fill: none; stroke: #e5e5e5; stroke-width: 0.6; stroke-linecap: square"/>
     </g>
     <g id="line2d_34">
      <g>
       <use xlink:href="#m24db7b0693" x="285.957818" y="78.786206" style="stroke: #000000; stroke-width: 0.8"/>
      </g>
     </g>
     <g id="text_22">
      <text style="font: 8px 'Arial', 'Helvetica', 'DejaVu Sans', sans-serif; text-anchor: end" x="278.957818" y="81.649331" transform="rotate(-0 278.957818 81.649331)">0.4</text>
     </g>
    </g>
    <g id="text_23">
     <text style="font: 8px 'Arial', 'Helvetica', 'DejaVu Sans', sans-serif; text-anchor: middle" x="262.247818" y="129.56" transform="rotate(-90 262.247818 129.56)">F1</text>
    </g>
   </g>
   <g id="line2d_35">
    <path d="M 294.258645 52.856624 
L 324.443468 105.540731 
L 369.720703 107.193604 
L 460.275174 100.934656 
" clip-path="url(#p6ce14d3d83)" style="fill: none; stroke: #4e79a7; stroke-width: 1.4; stroke-linecap: square"/>
    <g clip-path="url(#p6ce14d3d83)">
     <use xlink:href="#m6a83e68c2e" x="294.258645" y="52.856624" style="fill: #4e79a7; stroke: #4e79a7"/>
     <use xlink:href="#m6a83e68c2e" x="324.443468" y="105.540731" style="fill: #4e79a7; stroke: #4e79a7"/>
     <use xlink:href="#m6a83e68c2e" x="369.720703" y="107.193604" style="fill: #4e79a7; stroke: #4e79a7"/>
     <use xlink:href="#m6a83e68c2e" x="460.275174" y="100.934656" style="fill: #4e79a7; stroke: #4e79a7"/>
    </g>
   </g>
   <g id="line2d_36">
    <path d="M 294.258645 51.979809 
L 324.443468 141.816122 
L 369.720703 91.338392 
L 460.275174 100.621817 
" clip-path="url(#p6ce14d3d83)" style="fill: none; stroke: #86bcb6; stroke-width: 1.4; stroke-linecap: square"/>
    <g clip-path="url(#p6ce14d3d83)">
     <use xlink:href="#m21aa1def04" x="294.258645" y="51.979809" style="fill: #86bcb6; stroke: #86bcb6"/>
     <use xlink:href="#m21aa1def04" x="324.443468" y="141.816122" style="fill: #86bcb6; stroke: #86bcb6"/>
     <use xlink:href="#m21aa1def04" x="369.720703" y="91.338392" style="fill: #86bcb6; stroke: #86bcb6"/>
     <use xlink:href="#m21aa1def04" x="460.275174" y="100.621817" style="fill: #86bcb6; stroke: #86bcb6"/>
    </g>
   </g>
   <g id="line2d_37">
    <path d="M 294.258645 103.111762 
L 324.443468 103.409448 
L 369.720703 106.12932 
L 460.275174 104.879317 
" clip-path="url(#p6ce14d3d83)" style="fill: none; stroke: #f28e2b; stroke-width: 1.4; stroke-linecap: square"/>
    <g clip-path="url(#p6ce14d3d83)">
     <use xlink:href="#m13ba028faa" x="294.258645" y="103.111762" style="fill: #f28e2b; stroke: #f28e2b"/>
     <use xlink:href="#m13ba028faa" x="324.443468" y="103.409448" style="fill: #f28e2b; stroke: #f28e2b"/>
     <use xlink:href="#m13ba028faa" x="369.720703" y="106.12932" style="fill: #f28e2b; stroke: #f28e2b"/>
     <use xlink:href="#m13ba028faa" x="460.275174" y="104.879317" style="fill: #f28e2b; stroke: #f28e2b"/>
    </g>
   </g>
   <g id="line2d_38">
    <path d="M 294.258645 101.897083 
L 324.443468 101.897494 
L 369.720703 94.76613 
L 460.275174 99.023455 
" clip-path="url(#p6ce14d3d83)" style="fill: none; stroke: #e15759; stroke-width: 1.4; stroke-linecap: square"/>
    <g clip-path="url(#p6ce14d3d83)">
     <use xlink:href="#m8b7631898b" x="294.258645" y="101.897083" style="fill: #e15759; stroke: #e15759"/>
     <use xlink:href="#m8b7631898b" x="324.443468" y="101.897494" style="fill: #e15759; stroke: #e15759"/>
     <use xlink:href="#m8b7631898b" x="369.720703" y="94.76613" style="fill: #e15759; stroke: #e15759"/>
     <use xlink:href="#m8b7631898b" x="460.275174" y="99.023455" style="fill: #e15759; stroke: #e15759"/>
    </g>
   </g>
   <g id="line2d_39">
    <path d="M 294.258645 52.432127 
L 324.443468 163.575996 
L 369.720703 82.559662 
L 460.275174 104.248683 
" clip-path="url(#p6ce14d3d83)" style="fill: none; stroke: #59a14f; stroke-width: 1.4; stroke-linecap: square"/>
    <g clip-path="url(#p6ce14d3d83)">
     <use xlink:href="#m2e429fbf06" x="294.258645" y="52.432127" style="fill: #59a14f; stroke: #59a14f"/>
     <use xlink:href="#m2e429fbf06" x="324.443468" y="163.575996" style="fill: #59a14f; stroke: #59a14f"/>
     <use xlink:href="#m2e429fbf06" x="369.720703" y="82.559662" style="fill: #59a14f; stroke: #59a14f"/>
     <use xlink:href="#m2e429fbf06" x="460.275174" y="104.248683" style="fill: #59a14f; stroke: #59a14f"/>
    </g>
   </g>
   <g id="line2d_40">
    <path d="M 294.258645 91.878175 
L 324.443468 96.161582 
L 369.720703 101.782419 
L 460.275174 100.993338 
" clip-path="url(#p6ce14d3d83)" style="fill: none; stroke: #b07aa1; stroke-width: 1.4; stroke-linecap: square"/>
    <g clip-path="url(#p6ce14d3d83)">
     <use xlink:href="#m1149bbda6e" x="294.258645" y="91.878175" style="fill: #b07aa1; stroke: #b07aa1"/>
     <use xlink:href="#m1149bbda6e" x="324.443468" y="96.161582" style="fill: #b07aa1; stroke: #b07aa1"/>
     <use xlink:href="#m1149bbda6e" x="369.720703" y="101.782419" style="fill: #b07aa1; stroke: #b07aa1"/>
     <use xlink:href="#m1149bbda6e" x="460.275174" y="100.993338" style="fill: #b07aa1; stroke: #b07aa1"/>
    </g>
   </g>
   <g id="patch_6">
    <path d="M 285.957818 212.72 
L 285.957818 46.4 
" style="fill: none; stroke: #000000; stroke-width: 0.8; stroke-linejoin: miter; stroke-linecap: square"/>
   </g>
   <g id="patch_7">
    <path d="M 285.957818 212.72 
L 468.576 212.72 
" style="fill: none; stroke: #000000; stroke-width: 0.8; stroke-linejoin: miter; stroke-linecap: square"/>
   </g>
   <g id="text_24">
    <text style="font: 9.6px 'Arial', 'Helvetica', 'DejaVu Sans', sans-serif; text-anchor: middle" x="377.266909" y="40.4" transform="rotate(-0 377.266909 40.4)">B. Weak-label F1</text>
   </g>
  </g>
  <g id="text_25">
   <text style="font: 7px 'Arial', 'Helvetica', 'DejaVu Sans', sans-serif; text-anchor: start" x="7.2" y="242.96" transform="rotate(-0 7.2 242.96)">Weak KPI-threshold labels; not expert incident labels.</text>
  </g>
  <g id="legend_1">
   <g id="line2d_41">
    <path d="M 91.196625 13.42375 
L 99.196625 13.42375 
L 107.196625 13.42375 
" style="fill: none; stroke: #4e79a7; stroke-width: 1.4; stroke-linecap: square"/>
    <g>
     <use xlink:href="#m6a83e68c2e" x="99.196625" y="13.42375" style="fill: #4e79a7; stroke: #4e79a7"/>
    </g>
   </g>
   <g id="text_26">
    <text style="font: 8px 'Arial', 'Helvetica', 'DejaVu Sans', sans-serif; text-anchor: start" x="113.596625" y="16.22375" transform="rotate(-0 113.596625 16.22375)">Ridge/Logistic</text>
   </g>
   <g id="line2d_42">
    <path d="M 91.196625 24.93125 
L 99.196625 24.93125 
L 107.196625 24.93125 
" style="fill: none; stroke: #86bcb6; stroke-width: 1.4; stroke-linecap: square"/>
    <g>
     <use xlink:href="#m21aa1def04" x="99.196625" y="24.93125" style="fill: #86bcb6; stroke: #86bcb6"/>
    </g>
   </g>
   <g id="text_27">
    <text style="font: 8px 'Arial', 'Helvetica', 'DejaVu Sans', sans-serif; text-anchor: start" x="113.596625" y="27.73125" transform="rotate(-0 113.596625 27.73125)">Ridge/Logistic w/o alarms</text>
   </g>
   <g id="line2d_43">
    <path d="M 220.740375 13.42375 
L 228.740375 13.42375 
L 236.740375 13.42375 
" style="fill: none; stroke: #f28e2b; stroke-width: 1.4; stroke-linecap: square"/>
    <g>
     <use xlink:href="#m13ba028faa" x="228.740375" y="13.42375" style="fill: #f28e2b; stroke: #f28e2b"/>
    </g>
   </g>
   <g id="text_28">
    <text style="font: 8px 'Arial', 'Helvetica', 'DejaVu Sans', sans-serif; text-anchor: start" x="243.140375" y="16.22375" transform="rotate(-0 243.140375 16.22375)">Hawkes-only</text>
   </g>
   <g id="line2d_44">
    <path d="M 220.740375 24.83375 
L 228.740375 24.83375 
L 236.740375 24.83375 
" style="fill: none; stroke: #e15759; stroke-width: 1.4; stroke-linecap: square"/>
    <g>
     <use xlink:href="#m8b7631898b" x="228.740375" y="24.83375" style="fill: #e15759; stroke: #e15759"/>
    </g>
   </g>
   <g id="text_29">
    <text style="font: 8px 'Arial', 'Helvetica', 'DejaVu Sans', sans-serif; text-anchor: start" x="243.140375" y="27.63375" transform="rotate(-0 243.140375 27.63375)">Event-attention-only</text>
   </g>
   <g id="line2d_45">
    <path d="M 330.287875 13.42375 
L 338.287875 13.42375 
L 346.287875 13.42375 
" style="fill: none; stroke: #59a14f; stroke-width: 1.4; stroke-linecap: square"/>
    <g>
     <use xlink:href="#m2e429fbf06" x="338.287875" y="13.42375" style="fill: #59a14f; stroke: #59a14f"/>
    </g>
   </g>
   <g id="text_30">
    <text style="font: 8px 'Arial', 'Helvetica', 'DejaVu Sans', sans-serif; text-anchor: start" x="352.687875" y="16.22375" transform="rotate(-0 352.687875 16.22375)">CET-STGL-sklearn</text>
   </g>
   <g id="line2d_46">
    <path d="M 330.287875 24.74 
L 338.287875 24.74 
L 346.287875 24.74 
" style="fill: none; stroke: #b07aa1; stroke-width: 1.4; stroke-linecap: square"/>
    <g>
     <use xlink:href="#m1149bbda6e" x="338.287875" y="24.74" style="fill: #b07aa1; stroke: #b07aa1"/>
    </g>
   </g>
   <g id="text_31">
    <text style="font: 8px 'Arial', 'Helvetica', 'DejaVu Sans', sans-serif; text-anchor: start" x="352.687875" y="27.54" transform="rotate(-0 352.687875 27.54)">CET w/o alarm tokens</text>
   </g>
  </g>
 </g>
 <defs>
  <clipPath id="pd0ad024799">
   <rect x="66.816" y="46.4" width="182.618182" height="166.32"/>
  </clipPath>
  <clipPath id="p6ce14d3d83">
   <rect x="285.957818" y="46.4" width="182.618182" height="166.32"/>
  </clipPath>
 </defs>
</svg>
